<mxfile host="65bd71144e">
    <diagram id="ZdCZlQ3jKsx6WE3xu2Xo" name="Page-1">
        <mxGraphModel dx="1631" dy="925" grid="1" gridSize="2" guides="1" tooltips="1" connect="1" arrows="1" fold="1" page="1" pageScale="1" pageWidth="1600" pageHeight="900" math="0" shadow="0">
            <root>
                <mxCell id="0"/>
                <mxCell id="1" parent="0"/>
                <mxCell id="2" value="&lt;b&gt;&lt;font style=&quot;font-size: 18px;&quot;&gt;STM32 MCU&lt;/font&gt;&lt;/b&gt;" style="rounded=1;whiteSpace=wrap;html=1;" parent="1" vertex="1">
                    <mxGeometry x="440" y="330" width="290" height="230" as="geometry"/>
                </mxCell>
                <mxCell id="3" value="2 x TMP126NCKR&lt;br&gt;&amp;nbsp;(CZUJNIK TEMPERATURY)" style="rounded=1;whiteSpace=wrap;html=1;" parent="1" vertex="1">
                    <mxGeometry x="150" y="478" width="180" height="50" as="geometry"/>
                </mxCell>
                <mxCell id="5" value="" style="endArrow=classic;startArrow=classic;html=1;exitX=1;exitY=0.5;exitDx=0;exitDy=0;entryX=0;entryY=0.75;entryDx=0;entryDy=0;" parent="1" source="3" target="2" edge="1">
                    <mxGeometry width="50" height="50" relative="1" as="geometry">
                        <mxPoint x="610" y="420" as="sourcePoint"/>
                        <mxPoint x="660" y="370" as="targetPoint"/>
                    </mxGeometry>
                </mxCell>
                <mxCell id="6" value="SPI" style="edgeLabel;html=1;align=center;verticalAlign=middle;resizable=0;points=[];" parent="5" vertex="1" connectable="0">
                    <mxGeometry x="-0.1663" y="-1" relative="1" as="geometry">
                        <mxPoint x="10" y="-2" as="offset"/>
                    </mxGeometry>
                </mxCell>
                <mxCell id="8" value="MT25QL128&lt;br&gt;(PAMIĘĆ NOR FLASH)" style="rounded=1;whiteSpace=wrap;html=1;" parent="1" vertex="1">
                    <mxGeometry x="150" y="410" width="180" height="50" as="geometry"/>
                </mxCell>
                <mxCell id="9" value="" style="endArrow=classic;startArrow=classic;html=1;exitX=1;exitY=0.5;exitDx=0;exitDy=0;entryX=-0.003;entryY=0.457;entryDx=0;entryDy=0;entryPerimeter=0;" parent="1" source="8" edge="1" target="2">
                    <mxGeometry width="50" height="50" relative="1" as="geometry">
                        <mxPoint x="610" y="280" as="sourcePoint"/>
                        <mxPoint x="450" y="362.5" as="targetPoint"/>
                    </mxGeometry>
                </mxCell>
                <mxCell id="10" value="SPI" style="edgeLabel;html=1;align=center;verticalAlign=middle;resizable=0;points=[];" parent="9" vertex="1" connectable="0">
                    <mxGeometry x="-0.1663" y="-1" relative="1" as="geometry">
                        <mxPoint x="10" y="-2" as="offset"/>
                    </mxGeometry>
                </mxCell>
                <mxCell id="25" value="MCP 2561&lt;br&gt;(CAN TRANSCEIVER)" style="rounded=1;whiteSpace=wrap;html=1;fontSize=10;" vertex="1" parent="1">
                    <mxGeometry x="450" y="610" width="120" height="50" as="geometry"/>
                </mxCell>
                <mxCell id="27" value="MCP 2561&lt;br&gt;(CAN TRANSCEIVER)" style="rounded=1;whiteSpace=wrap;html=1;fontSize=10;" vertex="1" parent="1">
                    <mxGeometry x="520" y="670" width="120" height="50" as="geometry"/>
                </mxCell>
                <mxCell id="29" value="" style="endArrow=classic;startArrow=classic;html=1;fontSize=10;entryX=0.314;entryY=1.002;entryDx=0;entryDy=0;edgeStyle=orthogonalEdgeStyle;entryPerimeter=0;" edge="1" parent="1" target="2">
                    <mxGeometry width="50" height="50" relative="1" as="geometry">
                        <mxPoint x="510" y="610" as="sourcePoint"/>
                        <mxPoint x="560" y="560" as="targetPoint"/>
                    </mxGeometry>
                </mxCell>
                <mxCell id="31" value="" style="endArrow=classic;startArrow=classic;html=1;fontSize=10;entryX=0.37;entryY=0.999;entryDx=0;entryDy=0;entryPerimeter=0;" edge="1" parent="1" target="2">
                    <mxGeometry width="50" height="50" relative="1" as="geometry">
                        <mxPoint x="580" y="670" as="sourcePoint"/>
                        <mxPoint x="548" y="562" as="targetPoint"/>
                        <Array as="points">
                            <mxPoint x="580" y="600"/>
                            <mxPoint x="547" y="600"/>
                        </Array>
                    </mxGeometry>
                </mxCell>
                <mxCell id="34" style="edgeStyle=orthogonalEdgeStyle;html=1;entryX=0.25;entryY=0;entryDx=0;entryDy=0;fontSize=10;" edge="1" parent="1" source="33" target="2">
                    <mxGeometry relative="1" as="geometry"/>
                </mxCell>
                <mxCell id="33" value="3.3V&amp;nbsp; BUCK&lt;br&gt;5V LDO&lt;br&gt;(ZASILANIE)" style="rounded=0;whiteSpace=wrap;html=1;fontSize=10;" vertex="1" parent="1">
                    <mxGeometry x="462" y="212" width="100" height="60" as="geometry"/>
                </mxCell>
                <mxCell id="35" value="16 x WS2812B&amp;nbsp;&lt;br&gt;(DIODY INFORMACYJNE)" style="rounded=1;whiteSpace=wrap;html=1;fontSize=10;direction=south;verticalAlign=middle;horizontal=0;" vertex="1" parent="1">
                    <mxGeometry x="586" y="132" width="60" height="140" as="geometry"/>
                </mxCell>
                <mxCell id="36" value="" style="endArrow=classic;startArrow=classic;html=1;fontSize=10;entryX=1;entryY=0.5;entryDx=0;entryDy=0;exitX=0.605;exitY=-0.001;exitDx=0;exitDy=0;exitPerimeter=0;" edge="1" parent="1" source="2" target="35">
                    <mxGeometry width="50" height="50" relative="1" as="geometry">
                        <mxPoint x="604" y="330" as="sourcePoint"/>
                        <mxPoint x="654" y="280" as="targetPoint"/>
                    </mxGeometry>
                </mxCell>
                <mxCell id="38" value="BUZZER" style="rounded=1;whiteSpace=wrap;html=1;fontSize=10;direction=south;verticalAlign=middle;horizontal=0;" vertex="1" parent="1">
                    <mxGeometry x="662" y="132" width="60" height="140" as="geometry"/>
                </mxCell>
                <mxCell id="39" value="" style="endArrow=classic;startArrow=classic;html=1;fontSize=10;entryX=1;entryY=0.5;entryDx=0;entryDy=0;exitX=0.869;exitY=-0.003;exitDx=0;exitDy=0;exitPerimeter=0;" edge="1" parent="1" source="2">
                    <mxGeometry width="50" height="50" relative="1" as="geometry">
                        <mxPoint x="691.58" y="327.47" as="sourcePoint"/>
                        <mxPoint x="691.84" y="272.0000000000001" as="targetPoint"/>
                    </mxGeometry>
                </mxCell>
                <mxCell id="40" value="" style="endArrow=none;dashed=1;html=1;strokeWidth=2;fontSize=10;entryX=0.5;entryY=1;entryDx=0;entryDy=0;startArrow=classicThin;startFill=1;strokeColor=#007FFF;" edge="1" parent="1" target="25">
                    <mxGeometry width="50" height="50" relative="1" as="geometry">
                        <mxPoint x="508" y="772" as="sourcePoint"/>
                        <mxPoint x="606" y="520" as="targetPoint"/>
                    </mxGeometry>
                </mxCell>
                <mxCell id="41" value="CAN 1" style="edgeLabel;html=1;align=center;verticalAlign=middle;resizable=0;points=[];fontSize=10;rotation=270;" vertex="1" connectable="0" parent="40">
                    <mxGeometry x="-0.4734" y="5" relative="1" as="geometry">
                        <mxPoint x="4" y="-28" as="offset"/>
                    </mxGeometry>
                </mxCell>
                <mxCell id="42" value="" style="endArrow=none;dashed=1;html=1;strokeWidth=2;fontSize=10;entryX=0.5;entryY=1;entryDx=0;entryDy=0;startArrow=classicThin;startFill=1;strokeColor=#007FFF;" edge="1" parent="1">
                    <mxGeometry width="50" height="50" relative="1" as="geometry">
                        <mxPoint x="580" y="810" as="sourcePoint"/>
                        <mxPoint x="581" y="720.0000000000001" as="targetPoint"/>
                    </mxGeometry>
                </mxCell>
                <mxCell id="43" value="CAN 2" style="edgeLabel;html=1;align=center;verticalAlign=middle;resizable=0;points=[];fontSize=10;rotation=270;" vertex="1" connectable="0" parent="42">
                    <mxGeometry x="-0.4734" y="5" relative="1" as="geometry">
                        <mxPoint x="4" y="-28" as="offset"/>
                    </mxGeometry>
                </mxCell>
                <mxCell id="44" value="&lt;font style=&quot;font-size: 10px;&quot;&gt;BTS50010&lt;br&gt;(PRZEŁĄCZNIK HIGH SIDE)&lt;/font&gt;" style="rounded=1;whiteSpace=wrap;html=1;fontSize=18;" vertex="1" parent="1">
                    <mxGeometry x="856" y="306" width="144" height="60" as="geometry"/>
                </mxCell>
                <mxCell id="45" value="" style="endArrow=classic;startArrow=classic;html=1;fontSize=10;entryX=0;entryY=0.5;entryDx=0;entryDy=0;exitX=1;exitY=0.5;exitDx=0;exitDy=0;" edge="1" parent="1" source="2" target="44">
                    <mxGeometry width="50" height="50" relative="1" as="geometry">
                        <mxPoint x="704" y="434" as="sourcePoint"/>
                        <mxPoint x="754" y="384" as="targetPoint"/>
                        <Array as="points">
                            <mxPoint x="806" y="445"/>
                            <mxPoint x="806" y="336"/>
                        </Array>
                    </mxGeometry>
                </mxCell>
                <mxCell id="47" value="&lt;font style=&quot;font-size: 10px;&quot;&gt;BTS50010&lt;br&gt;(PRZEŁĄCZNIK HIGH SIDE)&lt;/font&gt;" style="rounded=1;whiteSpace=wrap;html=1;fontSize=18;" vertex="1" parent="1">
                    <mxGeometry x="856" y="390" width="144" height="60" as="geometry"/>
                </mxCell>
                <mxCell id="48" value="&lt;font style=&quot;font-size: 10px;&quot;&gt;BTS50010&lt;br&gt;(PRZEŁĄCZNIK HIGH SIDE)&lt;/font&gt;" style="rounded=1;whiteSpace=wrap;html=1;fontSize=18;" vertex="1" parent="1">
                    <mxGeometry x="856" y="472" width="144" height="60" as="geometry"/>
                </mxCell>
                <mxCell id="49" value="" style="endArrow=classic;startArrow=none;html=1;fontSize=10;entryX=0;entryY=0.5;entryDx=0;entryDy=0;startFill=0;" edge="1" parent="1" target="47">
                    <mxGeometry width="50" height="50" relative="1" as="geometry">
                        <mxPoint x="734" y="446" as="sourcePoint"/>
                        <mxPoint x="858" y="338" as="targetPoint"/>
                        <Array as="points">
                            <mxPoint x="736" y="446"/>
                            <mxPoint x="804" y="446"/>
                            <mxPoint x="808" y="420"/>
                        </Array>
                    </mxGeometry>
                </mxCell>
                <mxCell id="50" value="&lt;font style=&quot;font-size: 7px;&quot;&gt;GPIO + ADC&lt;/font&gt;" style="endArrow=classic;startArrow=none;html=1;fontSize=10;entryX=0;entryY=0.5;entryDx=0;entryDy=0;startFill=0;" edge="1" parent="1" target="48">
                    <mxGeometry x="-0.6404" y="2" width="50" height="50" relative="1" as="geometry">
                        <mxPoint x="734" y="446" as="sourcePoint"/>
                        <mxPoint x="856" y="420" as="targetPoint"/>
                        <Array as="points">
                            <mxPoint x="806" y="446"/>
                            <mxPoint x="806" y="502"/>
                        </Array>
                        <mxPoint as="offset"/>
                    </mxGeometry>
                </mxCell>
                <mxCell id="51" value="" style="rounded=1;whiteSpace=wrap;html=1;shadow=0;glass=0;sketch=0;fontSize=8;strokeWidth=2;fillColor=none;dashed=1;strokeColor=#007FFF;perimeterSpacing=0;arcSize=5;" vertex="1" parent="1">
                    <mxGeometry x="794" y="256" width="238" height="530" as="geometry"/>
                </mxCell>
                <mxCell id="52" value="&lt;b&gt;&lt;font size=&quot;1&quot; style=&quot;&quot;&gt;&lt;i style=&quot;font-size: 14px;&quot;&gt;WYJŚCIA HIGHSIDE&lt;/i&gt;&lt;/font&gt;&lt;/b&gt;" style="text;html=1;strokeColor=none;fillColor=none;align=center;verticalAlign=middle;whiteSpace=wrap;rounded=0;fontSize=10;" vertex="1" parent="1">
                    <mxGeometry x="810" y="264" width="182" height="30" as="geometry"/>
                </mxCell>
                <mxCell id="53" value="&lt;font style=&quot;font-size: 22px;&quot; color=&quot;#000100&quot;&gt;&lt;b&gt;...&lt;br&gt;x8&lt;/b&gt;&lt;br&gt;&lt;/font&gt;" style="text;html=1;strokeColor=none;fillColor=none;align=center;verticalAlign=middle;whiteSpace=wrap;rounded=0;fontSize=11;" vertex="1" parent="1">
                    <mxGeometry x="884" y="546" width="80" height="30" as="geometry"/>
                </mxCell>
                <mxCell id="56" value="&lt;font style=&quot;font-size: 10px;&quot; color=&quot;#000000&quot;&gt;BTS72220&lt;br&gt;(4 x PRZEŁĄCZNIK HIGHSIDE)&lt;br&gt;&lt;/font&gt;" style="rounded=1;whiteSpace=wrap;html=1;fontSize=14;fontColor=#007FFF;" vertex="1" parent="1">
                    <mxGeometry x="850" y="628" width="150" height="60" as="geometry"/>
                </mxCell>
                <mxCell id="57" value="&lt;font style=&quot;font-size: 10px;&quot; color=&quot;#000000&quot;&gt;BTS72220&lt;br&gt;(4 x PRZEŁĄCZNIK HIGHSIDE)&lt;br&gt;&lt;/font&gt;" style="rounded=1;whiteSpace=wrap;html=1;fontSize=14;fontColor=#007FFF;" vertex="1" parent="1">
                    <mxGeometry x="849" y="704" width="150" height="60" as="geometry"/>
                </mxCell>
                <mxCell id="59" value="" style="endArrow=classic;startArrow=classic;html=1;fontSize=10;entryX=0.75;entryY=1;entryDx=0;entryDy=0;exitX=0;exitY=0.5;exitDx=0;exitDy=0;" edge="1" parent="1" source="56" target="2">
                    <mxGeometry width="50" height="50" relative="1" as="geometry">
                        <mxPoint x="705" y="710.23" as="sourcePoint"/>
                        <mxPoint x="672.3" y="600" as="targetPoint"/>
                        <Array as="points">
                            <mxPoint x="658" y="658"/>
                        </Array>
                    </mxGeometry>
                </mxCell>
                <mxCell id="63" value="SPI" style="edgeLabel;html=1;align=center;verticalAlign=middle;resizable=0;points=[];fontSize=10;fontColor=#000000;" vertex="1" connectable="0" parent="59">
                    <mxGeometry x="-0.272" relative="1" as="geometry">
                        <mxPoint as="offset"/>
                    </mxGeometry>
                </mxCell>
                <mxCell id="60" value="" style="endArrow=classic;startArrow=classic;html=1;fontSize=10;exitX=0;exitY=0.5;exitDx=0;exitDy=0;" edge="1" parent="1">
                    <mxGeometry width="50" height="50" relative="1" as="geometry">
                        <mxPoint x="850" y="734" as="sourcePoint"/>
                        <mxPoint x="658" y="560" as="targetPoint"/>
                        <Array as="points">
                            <mxPoint x="658" y="734"/>
                        </Array>
                    </mxGeometry>
                </mxCell>
                <mxCell id="61" value="SPI" style="edgeLabel;html=1;align=center;verticalAlign=middle;resizable=0;points=[];fontSize=10;fontColor=#000000;" vertex="1" connectable="0" parent="60">
                    <mxGeometry x="0.187" y="2" relative="1" as="geometry">
                        <mxPoint x="86" y="25" as="offset"/>
                    </mxGeometry>
                </mxCell>
                <mxCell id="65" value="8 x ZBEZPIECZONE WEJŚCIA" style="rounded=1;whiteSpace=wrap;html=1;strokeColor=#007FFF;" vertex="1" parent="1">
                    <mxGeometry x="150" y="342" width="180" height="50" as="geometry"/>
                </mxCell>
                <mxCell id="66" value="" style="endArrow=classic;startArrow=classic;html=1;exitX=1;exitY=0.5;exitDx=0;exitDy=0;entryX=-0.003;entryY=0.457;entryDx=0;entryDy=0;entryPerimeter=0;" edge="1" parent="1">
                    <mxGeometry width="50" height="50" relative="1" as="geometry">
                        <mxPoint x="330.87" y="368" as="sourcePoint"/>
                        <mxPoint x="439.9999999999999" y="368.11" as="targetPoint"/>
                    </mxGeometry>
                </mxCell>
                <mxCell id="67" value="ADC" style="edgeLabel;html=1;align=center;verticalAlign=middle;resizable=0;points=[];" vertex="1" connectable="0" parent="66">
                    <mxGeometry x="-0.1663" y="-1" relative="1" as="geometry">
                        <mxPoint x="10" y="-2" as="offset"/>
                    </mxGeometry>
                </mxCell>
            </root>
        </mxGraphModel>
    </diagram>
</mxfile>